{
    "asset" : {
        "generator" : "Khronos glTF Blender I/O v1.6.16",
        "version" : "2.0"
    },
    "scene" : 0,
    "scenes" : [
        {
            "name" : "Scene",
            "nodes" : [
                1
            ]
        }
    ],
    "nodes" : [
        {
            "mesh" : 0,
            "name" : "chair made of metal and wood",
            "scale" : [
                0.0009836534736678004,
                0.0009836534736678004,
                0.0009836534736678004
            ],
            "translation" : [
                0.010080039501190186,
                0.46632885932922363,
                -0.00040280577377416193
            ]
        },
        {
            "children" : [
                0
            ],
            "name" : "Chair"
        }
    ],
    "materials" : [
        {
            "doubleSided" : true,
            "name" : "chair_mat",
            "normalTexture" : {
                "index" : 0
            },
            "pbrMetallicRoughness" : {
                "baseColorTexture" : {
                    "index" : 1
                },
                "metallicRoughnessTexture" : {
                    "index" : 2
                }
            }
        }
    ],
    "meshes" : [
        {
            "name" : "CUPlane.002",
            "primitives" : [
                {
                    "attributes" : {
                        "POSITION" : 0,
                        "NORMAL" : 1,
                        "TEXCOORD_0" : 2
                    },
                    "indices" : 3,
                    "material" : 0
                }
            ]
        }
    ],
    "textures" : [
        {
            "sampler" : 0,
            "source" : 0
        },
        {
            "sampler" : 0,
            "source" : 1
        },
        {
            "sampler" : 0,
            "source" : 2
        }
    ],
    "images" : [
        {
            "bufferView" : 4,
            "mimeType" : "image/jpeg",
            "name" : "chair_mat_Height"
        },
        {
            "bufferView" : 5,
            "mimeType" : "image/jpeg",
            "name" : "chair_mat_BaseColor"
        },
        {
            "bufferView" : 6,
            "mimeType" : "image/png",
            "name" : "chair_mat_Metallic-chair_mat_Roughness"
        }
    ],
    "accessors" : [
        {
            "bufferView" : 0,
            "componentType" : 5126,
            "count" : 15617,
            "max" : [
                245.55996704101562,
                237.23886108398438,
                297.8614501953125
            ],
            "min" : [
                -276.1340637207031,
                -474.0784606933594,
                -298.1982421875
            ],
            "type" : "VEC3"
        },
        {
            "bufferView" : 1,
            "componentType" : 5126,
            "count" : 15617,
            "type" : "VEC3"
        },
        {
            "bufferView" : 2,
            "componentType" : 5126,
            "count" : 15617,
            "type" : "VEC2"
        },
        {
            "bufferView" : 3,
            "componentType" : 5123,
            "count" : 78024,
            "type" : "SCALAR"
        }
    ],
    "bufferViews" : [
        {
            "buffer" : 0,
            "byteLength" : 187404,
            "byteOffset" : 0
        },
        {
            "buffer" : 0,
            "byteLength" : 187404,
            "byteOffset" : 187404
        },
        {
            "buffer" : 0,
            "byteLength" : 124936,
            "byteOffset" : 374808
        },
        {
            "buffer" : 0,
            "byteLength" : 156048,
            "byteOffset" : 499744
        },
        {
            "buffer" : 0,
            "byteLength" : 18329,
            "byteOffset" : 655792
        },
        {
            "buffer" : 0,
            "byteLength" : 99228,
            "byteOffset" : 674124
        },
        {
            "buffer" : 0,
            "byteLength" : 287056,
            "byteOffset" : 773352
        }
    ],
    "samplers" : [
        {
            "magFilter" : 9729,
            "minFilter" : 9987
        }
    ],
    "buffers" : [
        {
            "byteLength" : 1060408,
            "uri" : "data:application/octet-stream;base64,"
        }
    ]
}
