{
    "asset" : {
        "generator" : "Khronos glTF Blender I/O v1.6.16",
        "version" : "2.0"
    },
    "extensionsUsed" : [
        "KHR_texture_transform"
    ],
    "extensionsRequired" : [
        "KHR_texture_transform"
    ],
    "scene" : 0,
    "scenes" : [
        {
            "name" : "Scene",
            "nodes" : [
                0
            ]
        }
    ],
    "nodes" : [
        {
            "mesh" : 0,
            "name" : "Chair Karlstad"
        }
    ],
    "materials" : [
        {
            "doubleSided" : true,
            "name" : "Chair fabric",
            "pbrMetallicRoughness" : {
                "baseColorTexture" : {
                    "extensions" : {
                        "KHR_texture_transform" : {
                            "offset" : [
                                0,
                                -9
                            ],
                            "scale" : [
                                10,
                                10
                            ]
                        }
                    },
                    "index" : 0
                },
                "metallicFactor" : 0,
                "roughnessFactor" : 0.8114382028579712
            }
        },
        {
            "doubleSided" : true,
            "name" : "chair wood",
            "pbrMetallicRoughness" : {
                "baseColorTexture" : {
                    "index" : 1
                },
                "metallicFactor" : 0,
                "roughnessFactor" : 0.5
            }
        }
    ],
    "meshes" : [
        {
            "name" : "prop_chair_karlstad",
            "primitives" : [
                {
                    "attributes" : {
                        "POSITION" : 0,
                        "NORMAL" : 1,
                        "TEXCOORD_0" : 2
                    },
                    "indices" : 3,
                    "material" : 0
                },
                {
                    "attributes" : {
                        "POSITION" : 4,
                        "NORMAL" : 5,
                        "TEXCOORD_0" : 6
                    },
                    "indices" : 7,
                    "material" : 1
                }
            ]
        }
    ],
    "textures" : [
        {
            "sampler" : 0,
            "source" : 0
        },
        {
            "sampler" : 0,
            "source" : 1
        }
    ],
    "images" : [
        {
            "bufferView" : 4,
            "mimeType" : "image/png",
            "name" : "prop_chair_karlstad_fabric_dmap"
        },
        {
            "bufferView" : 9,
            "mimeType" : "image/png",
            "name" : "prop_chair_karlstad_wood_dmap"
        }
    ],
    "accessors" : [
        {
            "bufferView" : 0,
            "componentType" : 5126,
            "count" : 1241,
            "max" : [
                0.4168839156627655,
                0.8103283047676086,
                0.4539729952812195
            ],
            "min" : [
                -0.4168839156627655,
                0.14442087709903717,
                -0.41486304998397827
            ],
            "type" : "VEC3"
        },
        {
            "bufferView" : 1,
            "componentType" : 5126,
            "count" : 1241,
            "type" : "VEC3"
        },
        {
            "bufferView" : 2,
            "componentType" : 5126,
            "count" : 1241,
            "type" : "VEC2"
        },
        {
            "bufferView" : 3,
            "componentType" : 5123,
            "count" : 5022,
            "type" : "SCALAR"
        },
        {
            "bufferView" : 5,
            "componentType" : 5126,
            "count" : 64,
            "max" : [
                0.39956915378570557,
                0.1486504077911377,
                0.38598334789276123
            ],
            "min" : [
                -0.39956915378570557,
                -7.310742233812562e-08,
                -0.38598331809043884
            ],
            "type" : "VEC3"
        },
        {
            "bufferView" : 6,
            "componentType" : 5126,
            "count" : 64,
            "type" : "VEC3"
        },
        {
            "bufferView" : 7,
            "componentType" : 5126,
            "count" : 64,
            "type" : "VEC2"
        },
        {
            "bufferView" : 8,
            "componentType" : 5123,
            "count" : 96,
            "type" : "SCALAR"
        }
    ],
    "bufferViews" : [
        {
            "buffer" : 0,
            "byteLength" : 14892,
            "byteOffset" : 0
        },
        {
            "buffer" : 0,
            "byteLength" : 14892,
            "byteOffset" : 14892
        },
        {
            "buffer" : 0,
            "byteLength" : 9928,
            "byteOffset" : 29784
        },
        {
            "buffer" : 0,
            "byteLength" : 10044,
            "byteOffset" : 39712
        },
        {
            "buffer" : 0,
            "byteLength" : 120466,
            "byteOffset" : 49756
        },
        {
            "buffer" : 0,
            "byteLength" : 768,
            "byteOffset" : 170224
        },
        {
            "buffer" : 0,
            "byteLength" : 768,
            "byteOffset" : 170992
        },
        {
            "buffer" : 0,
            "byteLength" : 512,
            "byteOffset" : 171760
        },
        {
            "buffer" : 0,
            "byteLength" : 192,
            "byteOffset" : 172272
        },
        {
            "buffer" : 0,
            "byteLength" : 286987,
            "byteOffset" : 172464
        }
    ],
    "samplers" : [
        {
            "magFilter" : 9729,
            "minFilter" : 9987
        }
    ],
    "buffers" : [
        {
            "byteLength" : 459452,
            "uri" : "data:application/octet-stream;base64,"
        }
    ]
}
